<svg width="832.25px" height="114.8px" xmlns="http://www.w3.org/2000/svg" viewBox="-166.125 17.6 832.25 114.8" style="background: rgb(2, 6, 33);" preserveAspectRatio="xMidYMid"><defs><filter id="editing-hole" x="-100%" y="-100%" width="300%" height="300%"><feFlood flood-color="#020621" result="black"></feFlood><feMorphology operator="dilate" radius="2" in="SourceGraphic" result="erode"></feMorphology><feGaussianBlur in="erode" stdDeviation="4" result="blur"></feGaussianBlur><feOffset in="blur" dx="2" dy="2" result="offset"></feOffset><feComposite operator="atop" in="offset" in2="black" result="merge"></feComposite><feComposite operator="in" in="merge" in2="SourceGraphic" result="inner-shadow"></feComposite></filter></defs><g filter="url(#editing-hole)"><g transform="translate(-47.57002329826355, 104.92000007629395)"><path d="M19.90-34.56L19.90-34.56Q26.69-34.56 31.39-31.90L31.39-31.90L31.39-31.90Q36.10-29.25 36.10-23.68L36.10-23.68L24.26-23.68L24.26-23.68Q24.26-25.54 22.59-26.30L22.59-26.30L22.59-26.30Q21.44-26.94 19.71-26.94L19.71-26.94L19.71-26.94Q15.10-26.94 15.10-24.77L15.10-24.77L15.10-24.77Q15.10-23.55 16.70-23.04L16.70-23.04L16.70-23.04Q18.30-22.53 21.95-21.95L21.95-21.95L21.95-21.95Q26.43-21.31 29.44-20.45L29.44-20.45L29.44-20.45Q32.45-19.58 34.69-17.38L34.69-17.38L34.69-17.38Q36.93-15.17 36.93-11.20L36.93-11.20L36.93-11.20Q36.93-4.74 32.10-1.98L32.10-1.98L32.10-1.98Q27.26 0.77 19.46 0.77L19.46 0.77L19.46 0.77Q14.98 0.77 11.01-0.48L11.01-0.48L11.01-0.48Q7.04-1.73 4.54-4.35L4.54-4.35L4.54-4.35Q2.05-6.98 2.05-11.01L2.05-11.01L13.89-11.01L13.89-10.75L13.89-10.75Q13.95-8.58 15.71-7.71L15.71-7.71L15.71-7.71Q17.47-6.85 19.46-6.85L19.46-6.85L19.46-6.85Q24.77-6.85 24.77-9.34L24.77-9.34L24.77-9.34Q24.77-10.62 23.10-11.20L23.10-11.20L23.10-11.20Q21.44-11.78 17.66-12.42L17.66-12.42L17.66-12.42Q13.12-13.18 10.21-14.08L10.21-14.08L10.21-14.08Q7.30-14.98 5.12-17.12L5.12-17.12L5.12-17.12Q2.94-19.26 2.94-23.10L2.94-23.10L2.94-23.10Q2.94-29.31 7.65-31.94L7.65-31.94L7.65-31.94Q12.35-34.56 19.90-34.56L19.90-34.56ZM60.42-34.56L60.42-34.56Q69.70-34.56 74.59-30.21L74.59-30.21L74.59-30.21Q79.49-25.86 79.49-16.90L79.49-16.90L79.49-14.72L54.14-14.72L54.14-14.72Q54.14-11.07 55.78-9.22L55.78-9.22L55.78-9.22Q57.41-7.36 60.93-7.36L60.93-7.36L60.93-7.36Q64.13-7.36 65.63-8.70L65.63-8.70L65.63-8.70Q67.14-10.05 67.14-12.29L67.14-12.29L79.49-12.29L79.49-12.29Q79.49-6.14 74.82-2.69L74.82-2.69L74.82-2.69Q70.14 0.77 61.18 0.77L61.18 0.77L61.18 0.77Q51.78 0.77 46.59-3.62L46.59-3.62L46.59-3.62Q41.41-8 41.41-16.90L41.41-16.90L41.41-16.90Q41.41-25.60 46.46-30.08L46.46-30.08L46.46-30.08Q51.52-34.56 60.42-34.56L60.42-34.56ZM60.93-26.43L60.93-26.43Q54.91-26.43 54.21-20.74L54.21-20.74L66.62-20.74L66.62-20.74Q66.62-23.36 65.12-24.90L65.12-24.90L65.12-24.90Q63.62-26.43 60.93-26.43L60.93-26.43ZM102.34-34.56L102.34-34.56Q110.08-34.56 114.94-31.97L114.94-31.97L114.94-31.97Q119.81-29.38 119.81-23.55L119.81-23.55L119.81-10.37L119.81-10.37Q119.81-9.28 120.32-8.58L120.32-8.58L120.32-8.58Q120.83-7.87 121.86-7.87L121.86-7.87L124.16-7.87L124.16-0.51L124.16-0.51Q123.97-0.38 123.17-0.10L123.17-0.10L123.17-0.10Q122.37 0.19 120.90 0.48L120.90 0.48L120.90 0.48Q119.42 0.77 117.50 0.77L117.50 0.77L117.50 0.77Q113.79 0.77 111.39-0.35L111.39-0.35L111.39-0.35Q108.99-1.47 108.10-3.46L108.10-3.46L108.10-3.46Q105.66-1.54 102.66-0.38L102.66-0.38L102.66-0.38Q99.65 0.77 95.62 0.77L95.62 0.77L95.62 0.77Q83.71 0.77 83.71-8.70L83.71-8.70L83.71-8.70Q83.71-13.63 86.37-16.22L86.37-16.22L86.37-16.22Q89.02-18.82 94.02-19.78L94.02-19.78L94.02-19.78Q99.01-20.74 107.07-20.74L107.07-20.74L107.07-22.40L107.07-22.40Q107.07-24.38 105.70-25.41L105.70-25.41L105.70-25.41Q104.32-26.43 102.14-26.43L102.14-26.43L102.14-26.43Q100.16-26.43 98.72-25.73L98.72-25.73L98.72-25.73Q97.28-25.02 97.28-23.49L97.28-23.49L97.28-23.23L84.74-23.23L84.74-23.23Q84.67-23.55 84.67-24.13L84.67-24.13L84.67-24.13Q84.67-28.93 89.25-31.74L89.25-31.74L89.25-31.74Q93.82-34.56 102.34-34.56L102.34-34.56ZM107.07-14.72L107.07-14.72Q101.63-14.72 99.04-13.54L99.04-13.54L99.04-13.54Q96.45-12.35 96.45-10.37L96.45-10.37L96.45-10.37Q96.45-7.17 100.80-7.17L100.80-7.17L100.80-7.17Q103.30-7.17 105.18-8.51L105.18-8.51L105.18-8.51Q107.07-9.86 107.07-11.84L107.07-11.84L107.07-14.72ZM148.86-34.62L148.86-34.62Q150.34-34.62 151.49-34.27L151.49-34.27L151.49-34.27Q152.64-33.92 152.64-33.86L152.64-33.86L152.64-23.17L148.54-23.17L148.54-23.17Q144.58-23.17 142.82-21.12L142.82-21.12L142.82-21.12Q141.06-19.07 141.06-15.04L141.06-15.04L141.06 0L128.32 0L128.32-33.79L138.75-33.79L139.58-28.67L139.58-28.67Q140.74-31.62 143.23-33.12L143.23-33.12L143.23-33.12Q145.73-34.62 148.86-34.62L148.86-34.62ZM174.21-34.56L174.21-34.56Q182.53-34.56 187.68-31.01L187.68-31.01L187.68-31.01Q192.83-27.46 192.83-20.16L192.83-20.16L180.48-20.16L180.48-20.16Q180.48-25.92 174.21-25.92L174.21-25.92L174.21-25.92Q167.94-25.92 167.94-18.69L167.94-18.69L167.94-15.04L167.94-15.04Q167.94-7.87 174.46-7.87L174.46-7.87L174.46-7.87Q180.99-7.87 180.99-13.76L180.99-13.76L192.83-13.76L192.83-13.76Q192.83-6.40 187.68-2.82L187.68-2.82L187.68-2.82Q182.53 0.77 174.21 0.77L174.21 0.77L174.21 0.77Q165.31 0.77 160.26-3.71L160.26-3.71L160.26-3.71Q155.20-8.19 155.20-16.90L155.20-16.90L155.20-16.90Q155.20-25.60 160.26-30.08L160.26-30.08L160.26-30.08Q165.31-34.56 174.21-34.56L174.21-34.56ZM212.16-30.27L212.16-30.27Q214.21-32.32 216.96-33.44L216.96-33.44L216.96-33.44Q219.71-34.56 222.72-34.56L222.72-34.56L222.72-34.56Q228.61-34.56 231.55-31.30L231.55-31.30L231.55-31.30Q234.50-28.03 234.50-21.89L234.50-21.89L234.50 0L221.76 0L221.76-20.35L221.76-20.35Q221.76-22.53 220.64-23.84L220.64-23.84L220.64-23.84Q219.52-25.15 217.47-25.15L217.47-25.15L217.47-25.15Q215.10-25.15 213.63-23.62L213.63-23.62L213.63-23.62Q212.16-22.08 212.16-19.84L212.16-19.84L212.16 0L199.42 0L199.42-46.40L212.16-46.40L212.16-30.27ZM255.74 0L242.18 0L242.18-12.74L255.74-12.74L255.74 0ZM280.90-34.56L280.90-34.56Q290.18-34.56 295.07-30.21L295.07-30.21L295.07-30.21Q299.97-25.86 299.97-16.90L299.97-16.90L299.97-14.72L274.62-14.72L274.62-14.72Q274.62-11.07 276.26-9.22L276.26-9.22L276.26-9.22Q277.89-7.36 281.41-7.36L281.41-7.36L281.41-7.36Q284.61-7.36 286.11-8.70L286.11-8.70L286.11-8.70Q287.62-10.05 287.62-12.29L287.62-12.29L299.97-12.29L299.97-12.29Q299.97-6.14 295.30-2.69L295.30-2.69L295.30-2.69Q290.62 0.77 281.66 0.77L281.66 0.77L281.66 0.77Q272.26 0.77 267.07-3.62L267.07-3.62L267.07-3.62Q261.89-8 261.89-16.90L261.89-16.90L261.89-16.90Q261.89-25.60 266.94-30.08L266.94-30.08L266.94-30.08Q272-34.56 280.90-34.56L280.90-34.56ZM281.41-26.43L281.41-26.43Q275.39-26.43 274.69-20.74L274.69-20.74L287.10-20.74L287.10-20.74Q287.10-23.36 285.60-24.90L285.60-24.90L285.60-24.90Q284.10-26.43 281.41-26.43L281.41-26.43ZM319.30 0L306.56 0L306.56-46.40L319.30-46.40L319.30 0ZM340.61-37.76L327.87-37.76L327.87-46.40L340.61-46.40L340.61-37.76ZM340.61 0L327.87 0L327.87-33.79L340.61-33.79L340.61 0ZM365.44-34.56L365.44-34.56Q373.18-34.56 378.05-31.97L378.05-31.97L378.05-31.97Q382.91-29.38 382.91-23.55L382.91-23.55L382.91-10.37L382.91-10.37Q382.91-9.28 383.42-8.58L383.42-8.58L383.42-8.58Q383.94-7.87 384.96-7.87L384.96-7.87L387.26-7.87L387.26-0.51L387.26-0.51Q387.07-0.38 386.27-0.10L386.27-0.10L386.27-0.10Q385.47 0.19 384 0.48L384 0.48L384 0.48Q382.53 0.77 380.61 0.77L380.61 0.77L380.61 0.77Q376.90 0.77 374.50-0.35L374.50-0.35L374.50-0.35Q372.10-1.47 371.20-3.46L371.20-3.46L371.20-3.46Q368.77-1.54 365.76-0.38L365.76-0.38L365.76-0.38Q362.75 0.77 358.72 0.77L358.72 0.77L358.72 0.77Q346.82 0.77 346.82-8.70L346.82-8.70L346.82-8.70Q346.82-13.63 349.47-16.22L349.47-16.22L349.47-16.22Q352.13-18.82 357.12-19.78L357.12-19.78L357.12-19.78Q362.11-20.74 370.18-20.74L370.18-20.74L370.18-22.40L370.18-22.40Q370.18-24.38 368.80-25.41L368.80-25.41L368.80-25.41Q367.42-26.43 365.25-26.43L365.25-26.43L365.25-26.43Q363.26-26.43 361.82-25.73L361.82-25.73L361.82-25.73Q360.38-25.02 360.38-23.49L360.38-23.49L360.38-23.23L347.84-23.23L347.84-23.23Q347.78-23.55 347.78-24.13L347.78-24.13L347.78-24.13Q347.78-28.93 352.35-31.74L352.35-31.74L352.35-31.74Q356.93-34.56 365.44-34.56L365.44-34.56ZM370.18-14.72L370.18-14.72Q364.74-14.72 362.14-13.54L362.14-13.54L362.14-13.54Q359.55-12.35 359.55-10.37L359.55-10.37L359.55-10.37Q359.55-7.17 363.90-7.17L363.90-7.17L363.90-7.17Q366.40-7.17 368.29-8.51L368.29-8.51L368.29-8.51Q370.18-9.86 370.18-11.84L370.18-11.84L370.18-14.72ZM407.49-34.56L407.49-34.56Q414.27-34.56 418.98-31.90L418.98-31.90L418.98-31.90Q423.68-29.25 423.68-23.68L423.68-23.68L411.84-23.68L411.84-23.68Q411.84-25.54 410.18-26.30L410.18-26.30L410.18-26.30Q409.02-26.94 407.30-26.94L407.30-26.94L407.30-26.94Q402.69-26.94 402.69-24.77L402.69-24.77L402.69-24.77Q402.69-23.55 404.29-23.04L404.29-23.04L404.29-23.04Q405.89-22.53 409.54-21.95L409.54-21.95L409.54-21.95Q414.02-21.31 417.02-20.45L417.02-20.45L417.02-20.45Q420.03-19.58 422.27-17.38L422.27-17.38L422.27-17.38Q424.51-15.17 424.51-11.20L424.51-11.20L424.51-11.20Q424.51-4.74 419.68-1.98L419.68-1.98L419.68-1.98Q414.85 0.77 407.04 0.77L407.04 0.77L407.04 0.77Q402.56 0.77 398.59-0.48L398.59-0.48L398.59-0.48Q394.62-1.73 392.13-4.35L392.13-4.35L392.13-4.35Q389.63-6.98 389.63-11.01L389.63-11.01L401.47-11.01L401.47-10.75L401.47-10.75Q401.54-8.58 403.30-7.71L403.30-7.71L403.30-7.71Q405.06-6.85 407.04-6.85L407.04-6.85L407.04-6.85Q412.35-6.85 412.35-9.34L412.35-9.34L412.35-9.34Q412.35-10.62 410.69-11.20L410.69-11.20L410.69-11.20Q409.02-11.78 405.25-12.42L405.25-12.42L405.25-12.42Q400.70-13.18 397.79-14.08L397.79-14.08L397.79-14.08Q394.88-14.98 392.70-17.12L392.70-17.12L392.70-17.12Q390.53-19.26 390.53-23.10L390.53-23.10L390.53-23.10Q390.53-29.31 395.23-31.94L395.23-31.94L395.23-31.94Q399.94-34.56 407.49-34.56L407.49-34.56ZM475.39-34.56L475.39-34.56Q481.15-34.56 484.03-31.26L484.03-31.26L484.03-31.26Q486.91-27.97 486.91-21.89L486.91-21.89L486.91 0L474.18 0L474.18-20.35L474.18-20.35Q474.18-22.53 473.12-23.84L473.12-23.84L473.12-23.84Q472.06-25.15 470.14-25.15L470.14-25.15L470.14-25.15Q467.90-25.15 466.50-23.62L466.50-23.62L466.50-23.62Q465.09-22.08 465.09-19.84L465.09-19.84L465.09 0L452.35 0L452.35-20.35L452.35-20.35Q452.35-22.53 451.30-23.84L451.30-23.84L451.30-23.84Q450.24-25.15 448.32-25.15L448.32-25.15L448.32-25.15Q446.08-25.15 444.67-23.62L444.67-23.62L444.67-23.62Q443.26-22.08 443.26-19.84L443.26-19.84L443.26 0L430.53 0L430.53-33.79L440.96-33.79L441.79-28.74L441.79-28.74Q443.71-31.42 446.88-32.99L446.88-32.99L446.88-32.99Q450.05-34.56 453.57-34.56L453.57-34.56L453.57-34.56Q461.18-34.56 463.81-28.74L463.81-28.74L463.81-28.74Q465.79-31.42 468.90-32.99L468.90-32.99L468.90-32.99Q472-34.56 475.39-34.56L475.39-34.56ZM511.23-34.56L511.23-34.56Q518.98-34.56 523.84-31.97L523.84-31.97L523.84-31.97Q528.70-29.38 528.70-23.55L528.70-23.55L528.70-10.37L528.70-10.37Q528.70-9.28 529.22-8.58L529.22-8.58L529.22-8.58Q529.73-7.87 530.75-7.87L530.75-7.87L533.06-7.87L533.06-0.51L533.06-0.51Q532.86-0.38 532.06-0.10L532.06-0.10L532.06-0.10Q531.26 0.19 529.79 0.48L529.79 0.48L529.79 0.48Q528.32 0.77 526.40 0.77L526.40 0.77L526.40 0.77Q522.69 0.77 520.29-0.35L520.29-0.35L520.29-0.35Q517.89-1.47 516.99-3.46L516.99-3.46L516.99-3.46Q514.56-1.54 511.55-0.38L511.55-0.38L511.55-0.38Q508.54 0.77 504.51 0.77L504.51 0.77L504.51 0.77Q492.61 0.77 492.61-8.70L492.61-8.70L492.61-8.70Q492.61-13.63 495.26-16.22L495.26-16.22L495.26-16.22Q497.92-18.82 502.91-19.78L502.91-19.78L502.91-19.78Q507.90-20.74 515.97-20.74L515.97-20.74L515.97-22.40L515.97-22.40Q515.97-24.38 514.59-25.41L514.59-25.41L514.59-25.41Q513.22-26.43 511.04-26.43L511.04-26.43L511.04-26.43Q509.06-26.43 507.62-25.73L507.62-25.73L507.62-25.73Q506.18-25.02 506.18-23.49L506.18-23.49L506.18-23.23L493.63-23.23L493.63-23.23Q493.57-23.55 493.57-24.13L493.57-24.13L493.57-24.13Q493.57-28.93 498.14-31.74L498.14-31.74L498.14-31.74Q502.72-34.56 511.23-34.56L511.23-34.56ZM515.97-14.72L515.97-14.72Q510.53-14.72 507.94-13.54L507.94-13.54L507.94-13.54Q505.34-12.35 505.34-10.37L505.34-10.37L505.34-10.37Q505.34-7.17 509.70-7.17L509.70-7.17L509.70-7.17Q512.19-7.17 514.08-8.51L514.08-8.51L514.08-8.51Q515.97-9.86 515.97-11.84L515.97-11.84L515.97-14.72ZM560.51-34.56L560.51-34.56Q566.40-34.56 569.34-31.30L569.34-31.30L569.34-31.30Q572.29-28.03 572.29-21.89L572.29-21.89L572.29 0L559.55 0L559.55-20.35L559.55-20.35Q559.55-22.53 558.43-23.84L558.43-23.84L558.43-23.84Q557.31-25.15 555.26-25.15L555.26-25.15L555.26-25.15Q552.90-25.15 551.42-23.62L551.42-23.62L551.42-23.62Q549.95-22.08 549.95-19.84L549.95-19.84L549.95 0L537.22 0L537.22-33.79L547.65-33.79L548.48-28.67L548.48-28.67Q550.46-31.36 553.70-32.96L553.70-32.96L553.70-32.96Q556.93-34.56 560.51-34.56L560.51-34.56ZM593.09-37.76L580.35-37.76L580.35-46.40L593.09-46.40L593.09-37.76ZM593.09 1.86L593.09 1.86Q593.09 8 590.30 10.72L590.30 10.72L590.30 10.72Q587.52 13.44 581.38 13.44L581.38 13.44L581.38 13.44Q579.71 13.44 577.28 13.12L577.28 13.12L577.28 13.12Q574.85 12.80 573.44 12.29L573.44 12.29L573.44 4.67L576.77 4.67L576.77 4.67Q580.35 4.67 580.35 0.58L580.35 0.58L580.35-33.79L593.09-33.79L593.09 1.86Z" fill="#2bde73"></path></g></g><style>text {
  font-size: 64px;
  font-family: Arial Black;
  dominant-baseline: central;
  text-anchor: middle;
}</style></svg>